# xmcd
#
# Track frame offsets: 
#        150
#        12872
#        36052
#        51285
#        63350
#        80217
#        97620
#        152907
#        171362
#        191167
#        208085
#        226757
#
# Disc length: 3184 seconds
#
# Revision: 1
# Processed by: cddbd v1.5.2PL0 Copyright (c) Steve Scherf et al.
# Submitted via: ExactAudioCopy v0.90b4
#
DISCID=990c6e0c
DTITLE=Steven Vitali - invitation to dream
DYEAR=1900
DGENRE=Jazz
TTITLE0=Through the Eyes of a Child
TTITLE1=Ticket to Tokyo
TTITLE2=Highland Hills
TTITLE3=Stephano
TTITLE4=Imaginary Flight
TTITLE5=Tranquility
TTITLE6=Rain Forest Dance
TTITLE7=The Alomar Melody
TTITLE8=Live the Dream
TTITLE9=We Are One
TTITLE10=Andrew's Song
TTITLE11=Come Fly With Us
EXTD=
EXTT0=
EXTT1=
EXTT2=
EXTT3=
EXTT4=
EXTT5=
EXTT6=
EXTT7=
EXTT8=
EXTT9=
EXTT10=
EXTT11=
PLAYORDER=
